C:\GBW_MyPrograms\KinderuniversiteitApp\Resultaten\New_group\Olaf\Olaf_v2.mot
version=1
nRows=18
nColumns=29
inDegrees=yes
endheader
                time	         pelvis_tilt	           pelvis_tx	           pelvis_ty	       hip_flexion_l	       hip_flexion_r	        knee_angle_l	        knee_angle_r	       ankle_angle_l	       ankle_angle_r	    lumbar_extension	hamstrings_r/activation	bifemsh_r/activation	glut_max_r/activation	iliopsoas_r/activation	rect_fem_r/activation	  vasti_r/activation	gastroc_r/activation	 soleus_r/activation	tib_ant_r/activation	hamstrings_l/activation	bifemsh_l/activation	glut_max_l/activation	iliopsoas_l/activation	rect_fem_l/activation	  vasti_l/activation	gastroc_l/activation	 soleus_l/activation	tib_ant_l/activation	
          0.35846926	        -11.45066280	          0.47333824	          0.90756057	         16.67815515	         22.24360618	        -32.37083559	         -3.13785252	         16.83567751	         -3.18035845	         -5.04725976	          0.94682960	          0.60605341	          0.94718877	          0.12332135	          0.15735298	          0.80203973	          0.20885504	          0.32641325	          0.91617942	          0.24121409	          0.79506425	          0.09099824	          0.95971375	          0.88403041	          0.05254810	          0.58318421	          0.43894637	          0.81966269	
          0.36563865	        -11.22934406	          0.48462121	          0.90664630	         17.78284559	         21.69551643	        -35.23704173	         -3.30924350	         14.85497442	         -2.79088789	         -5.32723706	          0.94521880	          0.56063881	          0.94528769	          0.12401288	          0.15314772	          0.85256111	          0.19224103	          0.29668604	          0.92565069	          0.21767107	          0.76511985	          0.08995361	          0.95942527	          0.90941529	          0.05616004	          0.52445469	          0.39419308	          0.87187253	
          0.37280803	        -11.00367546	          0.49542963	          0.90637153	         18.90083013	         21.16247096	        -38.09949696	         -3.52558420	         13.17218783	         -2.02974286	         -5.65026286	          0.94398171	          0.53717915	          0.94335379	          0.12467979	          0.14950190	          0.88464549	          0.17734391	          0.26964909	          0.93294603	          0.19666626	          0.73306426	          0.08983759	          0.95895855	          0.92687893	          0.06539527	          0.47166834	          0.35405328	          0.90781985	
          0.37997742	        -10.77402083	          0.50578631	          0.90700659	         20.00885019	         20.63033602	        -40.85586413	         -3.71323299	         11.70395954	         -1.33917057	         -6.01699928	          0.94333414	          0.53404653	          0.94189698	          0.12535271	          0.14750940	          0.90590227	          0.16409357	          0.24529541	          0.93857162	          0.17813240	          0.70278090	          0.09028774	          0.95846448	          0.93838619	          0.07834195	          0.42479160	          0.31843719	          0.92897627	
          0.38714680	        -10.54313781	          0.51574302	          0.90806309	         21.08416892	         20.05481293	        -43.41169435	         -3.94308577	         10.45487254	         -0.71282993	         -6.42023308	          0.94245821	          0.54188296	          0.94042452	          0.12609669	          0.14655348	          0.84663580	          0.15246823	          0.22346042	          0.94081665	          0.16201672	          0.67731873	          0.09097968	          0.95806606	          0.94554446	          0.09760241	          0.38322489	          0.28689864	          0.93680187	
          0.39431619	        -10.31541271	          0.52536411	          0.90875615	         22.12570670	         19.55253287	        -45.72732900	         -4.17130276	          9.53269880	          0.08968197	         -6.84468614	          0.94149365	          0.55501641	          0.93886375	          0.12692671	          0.14611183	          0.77382134	          0.14246276	          0.20387409	          0.93928808	          0.14833489	          0.65639495	          0.09178571	          0.95774260	          0.94944479	          0.16985884	          0.34609487	          0.25875605	          0.94010308	
          0.40148557	        -10.09951183	          0.53469941	          0.90977152	         23.12769519	         18.97551659	        -47.79602215	         -4.39143810	          8.89751636	          0.87527872	         -7.27528241	          0.94069947	          0.56863334	          0.93711172	          0.12784759	          0.14584699	          0.70177516	          0.13428376	          0.18636355	          0.93756818	          0.13698779	          0.63658709	          0.09268066	          0.95741207	          0.95111845	          0.41587209	          0.31282388	          0.23356854	          0.94262498	
          0.40865496	         -9.89838095	          0.54379588	          0.91104574	         24.07148444	         18.42693209	        -49.58433179	         -4.55421964	          8.46722807	          1.58741611	         -7.70339490	          0.93955852	          0.58000106	          0.93437900	          0.12892292	          0.14568485	          0.63546718	          0.12838984	          0.17073253	          0.93735456	          0.12773764	          0.61546056	          0.09367433	          0.95708012	          0.95154049	          0.56971364	          0.28297799	          0.21101078	          0.94482548	
          0.41582434	         -9.71431273	          0.55269393	          0.91230909	         24.94873216	         17.92631486	        -51.05936104	         -4.62797856	          8.20953639	          2.18617661	         -8.12219520	          0.93931080	          0.59258867	          0.93216360	          0.13000318	          0.14526706	          0.57540531	          0.12447370	          0.15686643	          0.93827403	          0.11998686	          0.59268939	          0.09478460	          0.95660524	          0.95121997	          0.69074125	          0.25622663	          0.19083404	          0.94661996	
          0.42299373	         -9.55150336	          0.56142132	          0.91428179	         25.75293852	         17.45050440	        -52.20135508	         -4.71687077	          8.12940048	          2.61015290	         -8.52194794	          0.93860262	          0.60731659	          0.92858687	          0.13125884	          0.14487768	          0.52131594	          0.12322536	          0.14469044	          0.93985535	          0.11346674	          0.57064778	          0.09601564	          0.95608131	          0.95059080	          0.69179253	          0.23230963	          0.17284459	          0.94785982	
          0.43016311	         -9.41575947	          0.56999727	          0.91663524	         26.50826180	         16.93629122	        -52.98114839	         -4.74923449	          8.22000759	          3.01122590	         -8.89238123	          0.93864315	          0.62406380	          0.92611026	          0.13238996	          0.14418704	          0.47286274	          0.12223324	          0.13417279	          0.94154503	          0.10804275	          0.55167531	          0.09738917	          0.95536623	          0.94965260	          0.63486930	          0.21099000	          0.15687922	          0.94854227	
          0.43733250	         -9.30498740	          0.57845011	          0.91865351	         27.21583605	         16.44723369	        -53.40975976	         -4.71635703	          8.44798874	          3.30591416	         -9.23153275	          0.93907056	          0.63918089	          0.92465764	          0.13330351	          0.14342666	          0.42964004	          0.12161937	          0.12541098	          0.94297870	          0.10358175	          0.54018567	          0.09890453	          0.95449444	          0.94853494	          0.57809023	          0.19205669	          0.14279176	          0.94886002	
          0.44450189	         -9.21981134	          0.58679509	          0.91988491	         27.88257600	         16.00947402	        -53.49985365	         -4.61451941	          8.75449327	          3.55044267	         -9.53608218	          0.93980206	          0.64927966	          0.92482137	          0.13376460	          0.14273787	          0.39129772	          0.12142887	          0.11864526	          0.94386361	          0.09998577	          0.53901431	          0.10057566	          0.95347615	          0.94732273	          0.52579282	          0.17537898	          0.13044942	          0.94895167	
          0.45167127	         -9.16185438	          0.59504068	          0.92025968	         28.51016607	         15.57308158	        -53.26654827	         -4.47974986	          9.06421889	          3.72073807	         -9.80405562	          0.94076982	          0.65407472	          0.92627161	          0.13372523	          0.14205785	          0.35753671	          0.12137294	          0.11373099	          0.94463491	          0.09716575	          0.52274504	          0.10240778	          0.95233989	          0.94605883	          0.47833051	          0.16090849	          0.11976840	          0.94849852	
          0.45884066	         -9.13173697	          0.60319371	          0.91965164	         29.10375045	         15.14928585	        -52.78530201	         -4.33672692	          9.31739731	          3.92791345	        -10.03406595	          0.94194141	          0.65429940	          0.92863850	          0.13321319	          0.14131986	          0.32825936	          0.12126267	          0.11129439	          0.94555908	          0.09504901	          0.55325618	          0.10440727	          0.95108190	          0.94464906	          0.43540248	          0.14870618	          0.11076281	          0.94586892	
          0.46601004	         -9.13034880	          0.61125570	          0.91852857	         29.67475516	         14.75359237	        -52.14960781	         -4.19651802	          9.56027808	          4.21064784	        -10.22553507	          0.94320553	          0.65121644	          0.93132845	          0.13238658	          0.14052901	          0.30372256	          0.12101693	          0.10945066	          0.94696933	          0.09354327	          0.65005709	          0.10656980	          0.94974850	          0.94276675	          0.39657653	          0.13934154	          0.10437395	          0.93839909	
          0.47317943	         -9.15861002	          0.61921752	          0.91774981	         30.24189944	         14.39712648	        -51.39326506	         -4.07710732	          9.87018530	          4.57782170	        -10.37989965	          0.94443008	          0.64626644	          0.93387204	          0.13140433	          0.13966485	          0.28478402	          0.12054942	          0.10777103	          0.94919576	          0.09255581	          0.73542727	          0.10889009	          0.94843642	          0.93938216	          0.36143580	          0.13251489	          0.10009234	          0.92983953	
          0.48034881	         -9.21602241	          0.62706940	          0.91756635	         30.81502024	         14.08469369	        -50.48973441	         -3.98959082	         10.20945178	          4.95985821	        -10.50023826	          0.94584127	          0.64080018	          0.93649286	          0.13031897	          0.13860656	          0.27244474	          0.11982496	          0.10604635	          0.95233394	          0.09202865	          0.79786999	          0.11137592	          0.94697691	          0.92731616	          0.32964031	          0.18677548	          0.09963012	          0.92671371	
